<svg xmlns="http://www.w3.org/2000/svg" version="1.2" viewBox="0 0 205.5 30" style="background-color: white"><style >.normal { font:      0.12em sans-serif; } .bold   { font: bold 0.12em sans-serif; } .note   { font: bold 0.10em sans-serif; }</style><line x1="18.136363636363637" x2="18.136363636363637" y1="2" y2="28" stroke="darkgray" stroke-width="2" vector-effect="non-scaling-stroke" shape-rendering="crispEdges" /><line x1="31.33982683982684" x2="31.33982683982684" y1="2" y2="28" stroke="darkgray" stroke-width="2" vector-effect="non-scaling-stroke" shape-rendering="crispEdges" /><line x1="44.11038961038962" x2="44.11038961038962" y1="2" y2="28" stroke="darkgray" stroke-width="2" vector-effect="non-scaling-stroke" shape-rendering="crispEdges" /><line x1="56.448051948051955" x2="56.448051948051955" y1="2" y2="28" stroke="darkgray" stroke-width="2" vector-effect="non-scaling-stroke" shape-rendering="crispEdges" /><circle r="1.1" cx="50.06277056277057" cy="15" fill="#eee" /><line x1="68.35281385281385" x2="68.35281385281385" y1="2" y2="28" stroke="darkgray" stroke-width="2" vector-effect="non-scaling-stroke" shape-rendering="crispEdges" /><line x1="79.82467532467533" x2="79.82467532467533" y1="2" y2="28" stroke="darkgray" stroke-width="2" vector-effect="non-scaling-stroke" shape-rendering="crispEdges" /><circle r="1.1" cx="73.87229437229438" cy="15" fill="#eee" /><line x1="90.86363636363637" x2="90.86363636363637" y1="2" y2="28" stroke="darkgray" stroke-width="2" vector-effect="non-scaling-stroke" shape-rendering="crispEdges" /><line x1="101.46969696969698" x2="101.46969696969698" y1="2" y2="28" stroke="darkgray" stroke-width="2" vector-effect="non-scaling-stroke" shape-rendering="crispEdges" /><circle r="1.1" cx="95.95021645021646" cy="15" fill="#eee" /><line x1="111.64285714285715" x2="111.64285714285715" y1="2" y2="28" stroke="darkgray" stroke-width="2" vector-effect="non-scaling-stroke" shape-rendering="crispEdges" /><line x1="121.3831168831169" x2="121.3831168831169" y1="2" y2="28" stroke="darkgray" stroke-width="2" vector-effect="non-scaling-stroke" shape-rendering="crispEdges" /><circle r="1.1" cx="116.29653679653681" cy="15" fill="#eee" /><line x1="130.6904761904762" x2="130.6904761904762" y1="2" y2="28" stroke="darkgray" stroke-width="2" vector-effect="non-scaling-stroke" shape-rendering="crispEdges" /><line x1="139.56493506493507" x2="139.56493506493507" y1="2" y2="28" stroke="darkgray" stroke-width="2" vector-effect="non-scaling-stroke" shape-rendering="crispEdges" /><line x1="148.0064935064935" x2="148.0064935064935" y1="2" y2="28" stroke="darkgray" stroke-width="2" vector-effect="non-scaling-stroke" shape-rendering="crispEdges" /><circle r="1.1" cx="143.56926406926408" cy="9.8" fill="#eee" /><circle r="1.1" cx="143.56926406926408" cy="20.2" fill="#eee" /><line x1="156.01515151515153" x2="156.01515151515153" y1="2" y2="28" stroke="darkgray" stroke-width="2" vector-effect="non-scaling-stroke" shape-rendering="crispEdges" /><line x1="163.5909090909091" x2="163.5909090909091" y1="2" y2="28" stroke="darkgray" stroke-width="2" vector-effect="non-scaling-stroke" shape-rendering="crispEdges" /><line x1="170.73376623376623" x2="170.73376623376623" y1="2" y2="28" stroke="darkgray" stroke-width="2" vector-effect="non-scaling-stroke" shape-rendering="crispEdges" /><circle r="1.1" cx="166.94588744588745" cy="15" fill="#eee" /><line x1="177.44372294372295" x2="177.44372294372295" y1="2" y2="28" stroke="darkgray" stroke-width="2" vector-effect="non-scaling-stroke" shape-rendering="crispEdges" /><line x1="183.72077922077924" x2="183.72077922077924" y1="2" y2="28" stroke="darkgray" stroke-width="2" vector-effect="non-scaling-stroke" shape-rendering="crispEdges" /><circle r="1.1" cx="180.36580086580088" cy="15" fill="#eee" /><line x1="189.56493506493507" x2="189.56493506493507" y1="2" y2="28" stroke="darkgray" stroke-width="2" vector-effect="non-scaling-stroke" shape-rendering="crispEdges" /><line x1="194.97619047619048" x2="194.97619047619048" y1="2" y2="28" stroke="darkgray" stroke-width="2" vector-effect="non-scaling-stroke" shape-rendering="crispEdges" /><circle r="1.1" cx="192.05411255411255" cy="15" fill="#eee" /><line x1="199.95454545454547" x2="199.95454545454547" y1="2" y2="28" stroke="darkgray" stroke-width="2" vector-effect="non-scaling-stroke" shape-rendering="crispEdges" /><line x1="204.5" x2="204.5" y1="2" y2="28" stroke="darkgray" stroke-width="2" vector-effect="non-scaling-stroke" shape-rendering="crispEdges" /><circle r="1.1" cx="202.01082251082252" cy="15" fill="#eee" /><line x1="208.6125541125541" x2="208.6125541125541" y1="2" y2="28" stroke="darkgray" stroke-width="2" vector-effect="non-scaling-stroke" shape-rendering="crispEdges" /><line x1="5" x2="5" y1="2" y2="28" stroke-width="1" stroke="darkgray" shape-rendering="crispEdges" /><line x1="4.5" x2="204.5" y1="2" y2="2" stroke="#222222" stroke-width="2" shape-rendering="crispEdges" vector-effect="non-scaling-stroke" /><line x1="4.5" x2="204.5" y1="7.2" y2="7.2" stroke="#222222" stroke-width="2" shape-rendering="crispEdges" vector-effect="non-scaling-stroke" /><line x1="4.5" x2="204.5" y1="12.4" y2="12.4" stroke="#222222" stroke-width="2" shape-rendering="crispEdges" vector-effect="non-scaling-stroke" /><line x1="4.5" x2="204.5" y1="17.6" y2="17.6" stroke="#222222" stroke-width="2" shape-rendering="crispEdges" vector-effect="non-scaling-stroke" /><line x1="4.5" x2="204.5" y1="22.8" y2="22.8" stroke="#222222" stroke-width="2" shape-rendering="crispEdges" vector-effect="non-scaling-stroke" /><line x1="4.5" x2="204.5" y1="28" y2="28" stroke="#222222" stroke-width="2" shape-rendering="crispEdges" vector-effect="non-scaling-stroke" /><circle r="1.6" cx="1.8" cy="2" fill="#0093ee" /><text x="1.8" y="2.533333333333333" fill="white" class="note" text-anchor="middle">E</text><circle r="1.6" cx="37.72510822510823" cy="2" fill="#0093ee" /><text x="37.72510822510823" y="2.533333333333333" fill="white" class="note" text-anchor="middle">G</text><circle r="1.6" cx="62.400432900432904" cy="2" fill="#0093ee" /><text x="62.400432900432904" y="2.533333333333333" fill="white" class="note" text-anchor="middle">A</text><rect x="94.56666666666669" y="0.3999999999999999" width="3.2" height="3.2" fill="#0093ee" /><text x="96.16666666666669" y="2.533333333333333" fill="white" class="note" text-anchor="middle">C</text><circle r="1.6" cx="116.51298701298703" cy="2" fill="#0093ee" /><text x="116.51298701298703" y="2.533333333333333" fill="white" class="note" text-anchor="middle">D</text><circle r="1.6" cx="135.12770562770564" cy="2" fill="#0093ee" /><text x="135.12770562770564" y="2.533333333333333" fill="white" class="note" text-anchor="middle">E</text><circle r="1.6" cx="159.8030303030303" cy="2" fill="#0093ee" /><text x="159.8030303030303" y="2.533333333333333" fill="white" class="note" text-anchor="middle">G</text><circle r="1.6" cx="174.0887445887446" cy="2" fill="#0093ee" /><text x="174.0887445887446" y="2.533333333333333" fill="white" class="note" text-anchor="middle">A</text><rect x="190.67056277056278" y="0.3999999999999999" width="3.2" height="3.2" fill="#0093ee" /><text x="192.27056277056278" y="2.533333333333333" fill="white" class="note" text-anchor="middle">C</text><circle r="1.6" cx="202.22727272727272" cy="2" fill="#0093ee" /><text x="202.22727272727272" y="2.533333333333333" fill="white" class="note" text-anchor="middle">D</text><rect x="9.718181818181819" y="5.6" width="3.2" height="3.2" fill="#0093ee" /><text x="11.318181818181818" y="7.733333333333333" fill="white" class="note" text-anchor="middle">C</text><circle r="1.6" cx="37.72510822510823" cy="7.2" fill="#0093ee" /><text x="37.72510822510823" y="7.733333333333333" fill="white" class="note" text-anchor="middle">D</text><circle r="1.6" cx="62.400432900432904" cy="7.2" fill="#0093ee" /><text x="62.400432900432904" y="7.733333333333333" fill="white" class="note" text-anchor="middle">E</text><circle r="1.6" cx="96.16666666666669" cy="7.2" fill="#0093ee" /><text x="96.16666666666669" y="7.733333333333333" fill="white" class="note" text-anchor="middle">G</text><circle r="1.6" cx="116.51298701298703" cy="7.2" fill="#0093ee" /><text x="116.51298701298703" y="7.733333333333333" fill="white" class="note" text-anchor="middle">A</text><rect x="142.18571428571428" y="5.6" width="3.2" height="3.2" fill="#0093ee" /><text x="143.78571428571428" y="7.733333333333333" fill="white" class="note" text-anchor="middle">C</text><circle r="1.6" cx="159.8030303030303" cy="7.2" fill="#0093ee" /><text x="159.8030303030303" y="7.733333333333333" fill="white" class="note" text-anchor="middle">D</text><circle r="1.6" cx="174.0887445887446" cy="7.2" fill="#0093ee" /><text x="174.0887445887446" y="7.733333333333333" fill="white" class="note" text-anchor="middle">E</text><circle r="1.6" cx="192.27056277056278" cy="7.2" fill="#0093ee" /><text x="192.27056277056278" y="7.733333333333333" fill="white" class="note" text-anchor="middle">G</text><circle r="1.6" cx="202.22727272727272" cy="7.2" fill="#0093ee" /><text x="202.22727272727272" y="7.733333333333333" fill="white" class="note" text-anchor="middle">A</text><circle r="1.6" cx="1.8" cy="12.4" fill="#0093ee" /><text x="1.8" y="12.933333333333334" fill="white" class="note" text-anchor="middle">G</text><circle r="1.6" cx="24.738095238095237" cy="12.4" fill="#0093ee" /><text x="24.738095238095237" y="12.933333333333334" fill="white" class="note" text-anchor="middle">A</text><rect x="60.8004329004329" y="10.8" width="3.2" height="3.2" fill="#0093ee" /><text x="62.400432900432904" y="12.933333333333334" fill="white" class="note" text-anchor="middle">C</text><circle r="1.6" cx="85.34415584415585" cy="12.4" fill="#0093ee" /><text x="85.34415584415585" y="12.933333333333334" fill="white" class="note" text-anchor="middle">D</text><circle r="1.6" cx="106.55627705627707" cy="12.4" fill="#0093ee" /><text x="106.55627705627707" y="12.933333333333334" fill="white" class="note" text-anchor="middle">E</text><circle r="1.6" cx="135.12770562770564" cy="12.4" fill="#0093ee" /><text x="135.12770562770564" y="12.933333333333334" fill="white" class="note" text-anchor="middle">G</text><circle r="1.6" cx="152.01082251082252" cy="12.4" fill="#0093ee" /><text x="152.01082251082252" y="12.933333333333334" fill="white" class="note" text-anchor="middle">A</text><rect x="172.4887445887446" y="10.8" width="3.2" height="3.2" fill="#0093ee" /><text x="174.0887445887446" y="12.933333333333334" fill="white" class="note" text-anchor="middle">C</text><circle r="1.6" cx="186.64285714285714" cy="12.4" fill="#0093ee" /><text x="186.64285714285714" y="12.933333333333334" fill="white" class="note" text-anchor="middle">D</text><circle r="1.6" cx="197.465367965368" cy="12.4" fill="#0093ee" /><text x="197.465367965368" y="12.933333333333334" fill="white" class="note" text-anchor="middle">E</text><circle r="1.6" cx="1.8" cy="17.6" fill="#0093ee" /><text x="1.8" y="18.133333333333336" fill="white" class="note" text-anchor="middle">D</text><circle r="1.6" cx="24.738095238095237" cy="17.6" fill="#0093ee" /><text x="24.738095238095237" y="18.133333333333336" fill="white" class="note" text-anchor="middle">E</text><circle r="1.6" cx="62.400432900432904" cy="17.6" fill="#0093ee" /><text x="62.400432900432904" y="18.133333333333336" fill="white" class="note" text-anchor="middle">G</text><circle r="1.6" cx="85.34415584415585" cy="17.6" fill="#0093ee" /><text x="85.34415584415585" y="18.133333333333336" fill="white" class="note" text-anchor="middle">A</text><rect x="114.91298701298703" y="16" width="3.2" height="3.2" fill="#0093ee" /><text x="116.51298701298703" y="18.133333333333336" fill="white" class="note" text-anchor="middle">C</text><circle r="1.6" cx="135.12770562770564" cy="17.6" fill="#0093ee" /><text x="135.12770562770564" y="18.133333333333336" fill="white" class="note" text-anchor="middle">D</text><circle r="1.6" cx="152.01082251082252" cy="17.6" fill="#0093ee" /><text x="152.01082251082252" y="18.133333333333336" fill="white" class="note" text-anchor="middle">E</text><circle r="1.6" cx="174.0887445887446" cy="17.6" fill="#0093ee" /><text x="174.0887445887446" y="18.133333333333336" fill="white" class="note" text-anchor="middle">G</text><circle r="1.6" cx="186.64285714285714" cy="17.6" fill="#0093ee" /><text x="186.64285714285714" y="18.133333333333336" fill="white" class="note" text-anchor="middle">A</text><rect x="200.62727272727273" y="16" width="3.2" height="3.2" fill="#0093ee" /><text x="202.22727272727272" y="18.133333333333336" fill="white" class="note" text-anchor="middle">C</text><circle r="1.6" cx="1.8" cy="22.8" fill="#0093ee" /><text x="1.8" y="23.333333333333336" fill="white" class="note" text-anchor="middle">A</text><rect x="36.12510822510823" y="21.2" width="3.2" height="3.2" fill="#0093ee" /><text x="37.72510822510823" y="23.333333333333336" fill="white" class="note" text-anchor="middle">C</text><circle r="1.6" cx="62.400432900432904" cy="22.8" fill="#0093ee" /><text x="62.400432900432904" y="23.333333333333336" fill="white" class="note" text-anchor="middle">D</text><circle r="1.6" cx="85.34415584415585" cy="22.8" fill="#0093ee" /><text x="85.34415584415585" y="23.333333333333336" fill="white" class="note" text-anchor="middle">E</text><circle r="1.6" cx="116.51298701298703" cy="22.8" fill="#0093ee" /><text x="116.51298701298703" y="23.333333333333336" fill="white" class="note" text-anchor="middle">G</text><circle r="1.6" cx="135.12770562770564" cy="22.8" fill="#0093ee" /><text x="135.12770562770564" y="23.333333333333336" fill="white" class="note" text-anchor="middle">A</text><rect x="158.20303030303032" y="21.2" width="3.2" height="3.2" fill="#0093ee" /><text x="159.8030303030303" y="23.333333333333336" fill="white" class="note" text-anchor="middle">C</text><circle r="1.6" cx="174.0887445887446" cy="22.8" fill="#0093ee" /><text x="174.0887445887446" y="23.333333333333336" fill="white" class="note" text-anchor="middle">D</text><circle r="1.6" cx="186.64285714285714" cy="22.8" fill="#0093ee" /><text x="186.64285714285714" y="23.333333333333336" fill="white" class="note" text-anchor="middle">E</text><circle r="1.6" cx="202.22727272727272" cy="22.8" fill="#0093ee" /><text x="202.22727272727272" y="23.333333333333336" fill="white" class="note" text-anchor="middle">G</text><circle r="1.6" cx="1.8" cy="28" fill="#0093ee" /><text x="1.8" y="28.533333333333335" fill="white" class="note" text-anchor="middle">E</text><circle r="1.6" cx="37.72510822510823" cy="28" fill="#0093ee" /><text x="37.72510822510823" y="28.533333333333335" fill="white" class="note" text-anchor="middle">G</text><circle r="1.6" cx="62.400432900432904" cy="28" fill="#0093ee" /><text x="62.400432900432904" y="28.533333333333335" fill="white" class="note" text-anchor="middle">A</text><rect x="94.56666666666669" y="26.4" width="3.2" height="3.2" fill="#0093ee" /><text x="96.16666666666669" y="28.533333333333335" fill="white" class="note" text-anchor="middle">C</text><circle r="1.6" cx="116.51298701298703" cy="28" fill="#0093ee" /><text x="116.51298701298703" y="28.533333333333335" fill="white" class="note" text-anchor="middle">D</text><circle r="1.6" cx="135.12770562770564" cy="28" fill="#0093ee" /><text x="135.12770562770564" y="28.533333333333335" fill="white" class="note" text-anchor="middle">E</text><circle r="1.6" cx="159.8030303030303" cy="28" fill="#0093ee" /><text x="159.8030303030303" y="28.533333333333335" fill="white" class="note" text-anchor="middle">G</text><circle r="1.6" cx="174.0887445887446" cy="28" fill="#0093ee" /><text x="174.0887445887446" y="28.533333333333335" fill="white" class="note" text-anchor="middle">A</text><rect x="190.67056277056278" y="26.4" width="3.2" height="3.2" fill="#0093ee" /><text x="192.27056277056278" y="28.533333333333335" fill="white" class="note" text-anchor="middle">C</text><circle r="1.6" cx="202.22727272727272" cy="28" fill="#0093ee" /><text x="202.22727272727272" y="28.533333333333335" fill="white" class="note" text-anchor="middle">D</text></svg>