<svg xmlns="http://www.w3.org/2000/svg" version="1.2" viewBox="0 0 205.5 33" style="background-color: white"><style >.normal { font:      0.12em sans-serif; } .bold   { font: bold 0.12em sans-serif; } .note   { font: bold 0.10em sans-serif; }</style><line x1="24.5" x2="24.5" y1="2" y2="28" stroke="darkgray" stroke-width="2" vector-effect="non-scaling-stroke" shape-rendering="crispEdges" /><text x="14.5" y="32" fill="gray" class="normal" text-anchor="middle">1</text><line x1="43.54761904761905" x2="43.54761904761905" y1="2" y2="28" stroke="darkgray" stroke-width="2" vector-effect="non-scaling-stroke" shape-rendering="crispEdges" /><text x="34.023809523809526" y="32" fill="gray" class="normal" text-anchor="middle">2</text><line x1="61.64285714285715" x2="61.64285714285715" y1="2" y2="28" stroke="darkgray" stroke-width="2" vector-effect="non-scaling-stroke" shape-rendering="crispEdges" /><text x="52.5952380952381" y="32" fill="gray" class="bold" text-anchor="middle">3</text><line x1="78.78571428571429" x2="78.78571428571429" y1="2" y2="28" stroke="darkgray" stroke-width="2" vector-effect="non-scaling-stroke" shape-rendering="crispEdges" /><circle r="1.1" cx="69.73809523809524" cy="15" fill="#eee" /><text x="70.21428571428572" y="32" fill="gray" class="normal" text-anchor="middle">4</text><line x1="94.97619047619048" x2="94.97619047619048" y1="2" y2="28" stroke="darkgray" stroke-width="2" vector-effect="non-scaling-stroke" shape-rendering="crispEdges" /><text x="86.88095238095238" y="32" fill="gray" class="bold" text-anchor="middle">5</text><line x1="110.21428571428572" x2="110.21428571428572" y1="2" y2="28" stroke="darkgray" stroke-width="2" vector-effect="non-scaling-stroke" shape-rendering="crispEdges" /><circle r="1.1" cx="102.11904761904762" cy="15" fill="#eee" /><text x="102.5952380952381" y="32" fill="gray" class="normal" text-anchor="middle">6</text><line x1="124.50000000000001" x2="124.50000000000001" y1="2" y2="28" stroke="darkgray" stroke-width="2" vector-effect="non-scaling-stroke" shape-rendering="crispEdges" /><text x="117.35714285714288" y="32" fill="gray" class="bold" text-anchor="middle">7</text><line x1="137.83333333333334" x2="137.83333333333334" y1="2" y2="28" stroke="darkgray" stroke-width="2" vector-effect="non-scaling-stroke" shape-rendering="crispEdges" /><circle r="1.1" cx="130.6904761904762" cy="15" fill="#eee" /><text x="131.16666666666669" y="32" fill="gray" class="normal" text-anchor="middle">8</text><line x1="150.21428571428572" x2="150.21428571428572" y1="2" y2="28" stroke="darkgray" stroke-width="2" vector-effect="non-scaling-stroke" shape-rendering="crispEdges" /><text x="144.02380952380952" y="32" fill="gray" class="bold" text-anchor="middle">9</text><line x1="161.64285714285714" x2="161.64285714285714" y1="2" y2="28" stroke="darkgray" stroke-width="2" vector-effect="non-scaling-stroke" shape-rendering="crispEdges" /><circle r="1.1" cx="155.45238095238096" cy="15" fill="#eee" /><text x="155.92857142857142" y="32" fill="gray" class="normal" text-anchor="middle">10</text><line x1="172.11904761904762" x2="172.11904761904762" y1="2" y2="28" stroke="darkgray" stroke-width="2" vector-effect="non-scaling-stroke" shape-rendering="crispEdges" /><text x="166.88095238095238" y="32" fill="gray" class="normal" text-anchor="middle">11</text><line x1="181.64285714285714" x2="181.64285714285714" y1="2" y2="28" stroke="darkgray" stroke-width="2" vector-effect="non-scaling-stroke" shape-rendering="crispEdges" /><text x="176.88095238095238" y="32" fill="gray" class="normal" text-anchor="middle">12</text><line x1="190.21428571428572" x2="190.21428571428572" y1="2" y2="28" stroke="darkgray" stroke-width="2" vector-effect="non-scaling-stroke" shape-rendering="crispEdges" /><circle r="1.1" cx="185.45238095238096" cy="9.8" fill="#eee" /><circle r="1.1" cx="185.45238095238096" cy="20.2" fill="#eee" /><text x="185.92857142857144" y="32" fill="gray" class="normal" text-anchor="middle">13</text><line x1="197.83333333333334" x2="197.83333333333334" y1="2" y2="28" stroke="darkgray" stroke-width="2" vector-effect="non-scaling-stroke" shape-rendering="crispEdges" /><text x="194.02380952380955" y="32" fill="gray" class="normal" text-anchor="middle">14</text><line x1="204.5" x2="204.5" y1="2" y2="28" stroke="darkgray" stroke-width="2" vector-effect="non-scaling-stroke" shape-rendering="crispEdges" /><text x="201.16666666666666" y="32" fill="gray" class="bold" text-anchor="middle">15</text><line x1="210.21428571428572" x2="210.21428571428572" y1="2" y2="28" stroke="darkgray" stroke-width="2" vector-effect="non-scaling-stroke" shape-rendering="crispEdges" /><circle r="1.1" cx="206.88095238095238" cy="15" fill="#eee" /><line x1="5" x2="5" y1="2" y2="28" stroke-width="1" stroke="darkgray" shape-rendering="crispEdges" /><line x1="4.5" x2="204.5" y1="2" y2="2" stroke="#222222" stroke-width="2" shape-rendering="crispEdges" vector-effect="non-scaling-stroke" /><line x1="4.5" x2="204.5" y1="7.2" y2="7.2" stroke="#222222" stroke-width="2" shape-rendering="crispEdges" vector-effect="non-scaling-stroke" /><line x1="4.5" x2="204.5" y1="12.4" y2="12.4" stroke="#222222" stroke-width="2" shape-rendering="crispEdges" vector-effect="non-scaling-stroke" /><line x1="4.5" x2="204.5" y1="17.6" y2="17.6" stroke="#222222" stroke-width="2" shape-rendering="crispEdges" vector-effect="non-scaling-stroke" /><line x1="4.5" x2="204.5" y1="22.8" y2="22.8" stroke="#222222" stroke-width="2" shape-rendering="crispEdges" vector-effect="non-scaling-stroke" /><line x1="4.5" x2="204.5" y1="28" y2="28" stroke="#222222" stroke-width="2" shape-rendering="crispEdges" vector-effect="non-scaling-stroke" /><circle r="1.6" cx="1.8" cy="2" fill="#0093ee" /><text x="1.8" y="2.533333333333333" fill="white" class="note" text-anchor="middle">3</text><circle r="1.6" cx="14.5" cy="2" fill="#0093ee" /><text x="14.5" y="2.533333333333333" fill="white" class="note" text-anchor="middle">4</text><circle r="1.6" cx="52.5952380952381" cy="2" fill="#0093ee" /><text x="52.5952380952381" y="2.533333333333333" fill="white" class="note" text-anchor="middle">5</text><circle r="1.6" cx="86.88095238095238" cy="2" fill="#0093ee" /><text x="86.88095238095238" y="2.533333333333333" fill="white" class="note" text-anchor="middle">6</text><circle r="1.6" cx="117.35714285714288" cy="2" fill="#0093ee" /><text x="117.35714285714288" y="2.533333333333333" fill="white" class="note" text-anchor="middle">7</text><rect x="129.5666666666667" y="0.3999999999999999" width="3.2" height="3.2" fill="#0093ee" /><text x="131.16666666666669" y="2.533333333333333" fill="white" class="note" text-anchor="middle">1</text><circle r="1.6" cx="155.92857142857142" cy="2" fill="#0093ee" /><text x="155.92857142857142" y="2.533333333333333" fill="white" class="note" text-anchor="middle">2</text><circle r="1.6" cx="176.88095238095238" cy="2" fill="#0093ee" /><text x="176.88095238095238" y="2.533333333333333" fill="white" class="note" text-anchor="middle">3</text><circle r="1.6" cx="185.92857142857144" cy="2" fill="#0093ee" /><text x="185.92857142857144" y="2.533333333333333" fill="white" class="note" text-anchor="middle">4</text><circle r="1.6" cx="201.16666666666666" cy="2" fill="#0093ee" /><text x="201.16666666666666" y="2.533333333333333" fill="white" class="note" text-anchor="middle">5</text><circle r="1.6" cx="1.8" cy="7.2" fill="#0093ee" /><text x="1.8" y="7.733333333333333" fill="white" class="note" text-anchor="middle">7</text><rect x="12.9" y="5.6" width="3.2" height="3.2" fill="#0093ee" /><text x="14.5" y="7.733333333333333" fill="white" class="note" text-anchor="middle">1</text><circle r="1.6" cx="52.5952380952381" cy="7.2" fill="#0093ee" /><text x="52.5952380952381" y="7.733333333333333" fill="white" class="note" text-anchor="middle">2</text><circle r="1.6" cx="86.88095238095238" cy="7.2" fill="#0093ee" /><text x="86.88095238095238" y="7.733333333333333" fill="white" class="note" text-anchor="middle">3</text><circle r="1.6" cx="102.5952380952381" cy="7.2" fill="#0093ee" /><text x="102.5952380952381" y="7.733333333333333" fill="white" class="note" text-anchor="middle">4</text><circle r="1.6" cx="131.16666666666669" cy="7.2" fill="#0093ee" /><text x="131.16666666666669" y="7.733333333333333" fill="white" class="note" text-anchor="middle">5</text><circle r="1.6" cx="155.92857142857142" cy="7.2" fill="#0093ee" /><text x="155.92857142857142" y="7.733333333333333" fill="white" class="note" text-anchor="middle">6</text><circle r="1.6" cx="176.88095238095238" cy="7.2" fill="#0093ee" /><text x="176.88095238095238" y="7.733333333333333" fill="white" class="note" text-anchor="middle">7</text><rect x="184.32857142857145" y="5.6" width="3.2" height="3.2" fill="#0093ee" /><text x="185.92857142857144" y="7.733333333333333" fill="white" class="note" text-anchor="middle">1</text><circle r="1.6" cx="201.16666666666666" cy="7.2" fill="#0093ee" /><text x="201.16666666666666" y="7.733333333333333" fill="white" class="note" text-anchor="middle">2</text><circle r="1.6" cx="1.8" cy="12.4" fill="#0093ee" /><text x="1.8" y="12.933333333333334" fill="white" class="note" text-anchor="middle">5</text><circle r="1.6" cx="34.023809523809526" cy="12.4" fill="#0093ee" /><text x="34.023809523809526" y="12.933333333333334" fill="white" class="note" text-anchor="middle">6</text><circle r="1.6" cx="70.21428571428572" cy="12.4" fill="#0093ee" /><text x="70.21428571428572" y="12.933333333333334" fill="white" class="note" text-anchor="middle">7</text><rect x="85.28095238095239" y="10.8" width="3.2" height="3.2" fill="#0093ee" /><text x="86.88095238095238" y="12.933333333333334" fill="white" class="note" text-anchor="middle">1</text><circle r="1.6" cx="117.35714285714288" cy="12.4" fill="#0093ee" /><text x="117.35714285714288" y="12.933333333333334" fill="white" class="note" text-anchor="middle">2</text><circle r="1.6" cx="144.02380952380952" cy="12.4" fill="#0093ee" /><text x="144.02380952380952" y="12.933333333333334" fill="white" class="note" text-anchor="middle">3</text><circle r="1.6" cx="155.92857142857142" cy="12.4" fill="#0093ee" /><text x="155.92857142857142" y="12.933333333333334" fill="white" class="note" text-anchor="middle">4</text><circle r="1.6" cx="176.88095238095238" cy="12.4" fill="#0093ee" /><text x="176.88095238095238" y="12.933333333333334" fill="white" class="note" text-anchor="middle">5</text><circle r="1.6" cx="194.02380952380955" cy="12.4" fill="#0093ee" /><text x="194.02380952380955" y="12.933333333333334" fill="white" class="note" text-anchor="middle">6</text><circle r="1.6" cx="1.8" cy="17.6" fill="#0093ee" /><text x="1.8" y="18.133333333333336" fill="white" class="note" text-anchor="middle">2</text><circle r="1.6" cx="34.023809523809526" cy="17.6" fill="#0093ee" /><text x="34.023809523809526" y="18.133333333333336" fill="white" class="note" text-anchor="middle">3</text><circle r="1.6" cx="52.5952380952381" cy="17.6" fill="#0093ee" /><text x="52.5952380952381" y="18.133333333333336" fill="white" class="note" text-anchor="middle">4</text><circle r="1.6" cx="86.88095238095238" cy="17.6" fill="#0093ee" /><text x="86.88095238095238" y="18.133333333333336" fill="white" class="note" text-anchor="middle">5</text><circle r="1.6" cx="117.35714285714288" cy="17.6" fill="#0093ee" /><text x="117.35714285714288" y="18.133333333333336" fill="white" class="note" text-anchor="middle">6</text><circle r="1.6" cx="144.02380952380952" cy="17.6" fill="#0093ee" /><text x="144.02380952380952" y="18.133333333333336" fill="white" class="note" text-anchor="middle">7</text><rect x="154.32857142857142" y="16" width="3.2" height="3.2" fill="#0093ee" /><text x="155.92857142857142" y="18.133333333333336" fill="white" class="note" text-anchor="middle">1</text><circle r="1.6" cx="176.88095238095238" cy="17.6" fill="#0093ee" /><text x="176.88095238095238" y="18.133333333333336" fill="white" class="note" text-anchor="middle">2</text><circle r="1.6" cx="194.02380952380955" cy="17.6" fill="#0093ee" /><text x="194.02380952380955" y="18.133333333333336" fill="white" class="note" text-anchor="middle">3</text><circle r="1.6" cx="201.16666666666666" cy="17.6" fill="#0093ee" /><text x="201.16666666666666" y="18.133333333333336" fill="white" class="note" text-anchor="middle">4</text><circle r="1.6" cx="1.8" cy="22.8" fill="#0093ee" /><text x="1.8" y="23.333333333333336" fill="white" class="note" text-anchor="middle">6</text><circle r="1.6" cx="34.023809523809526" cy="22.8" fill="#0093ee" /><text x="34.023809523809526" y="23.333333333333336" fill="white" class="note" text-anchor="middle">7</text><rect x="50.9952380952381" y="21.2" width="3.2" height="3.2" fill="#0093ee" /><text x="52.5952380952381" y="23.333333333333336" fill="white" class="note" text-anchor="middle">1</text><circle r="1.6" cx="86.88095238095238" cy="22.8" fill="#0093ee" /><text x="86.88095238095238" y="23.333333333333336" fill="white" class="note" text-anchor="middle">2</text><circle r="1.6" cx="117.35714285714288" cy="22.8" fill="#0093ee" /><text x="117.35714285714288" y="23.333333333333336" fill="white" class="note" text-anchor="middle">3</text><circle r="1.6" cx="131.16666666666669" cy="22.8" fill="#0093ee" /><text x="131.16666666666669" y="23.333333333333336" fill="white" class="note" text-anchor="middle">4</text><circle r="1.6" cx="155.92857142857142" cy="22.8" fill="#0093ee" /><text x="155.92857142857142" y="23.333333333333336" fill="white" class="note" text-anchor="middle">5</text><circle r="1.6" cx="176.88095238095238" cy="22.8" fill="#0093ee" /><text x="176.88095238095238" y="23.333333333333336" fill="white" class="note" text-anchor="middle">6</text><circle r="1.6" cx="194.02380952380955" cy="22.8" fill="#0093ee" /><text x="194.02380952380955" y="23.333333333333336" fill="white" class="note" text-anchor="middle">7</text><rect x="199.56666666666666" y="21.2" width="3.2" height="3.2" fill="#0093ee" /><text x="201.16666666666666" y="23.333333333333336" fill="white" class="note" text-anchor="middle">1</text><circle r="1.6" cx="1.8" cy="28" fill="#0093ee" /><text x="1.8" y="28.533333333333335" fill="white" class="note" text-anchor="middle">3</text><circle r="1.6" cx="14.5" cy="28" fill="#0093ee" /><text x="14.5" y="28.533333333333335" fill="white" class="note" text-anchor="middle">4</text><circle r="1.6" cx="52.5952380952381" cy="28" fill="#0093ee" /><text x="52.5952380952381" y="28.533333333333335" fill="white" class="note" text-anchor="middle">5</text><circle r="1.6" cx="86.88095238095238" cy="28" fill="#0093ee" /><text x="86.88095238095238" y="28.533333333333335" fill="white" class="note" text-anchor="middle">6</text><circle r="1.6" cx="117.35714285714288" cy="28" fill="#0093ee" /><text x="117.35714285714288" y="28.533333333333335" fill="white" class="note" text-anchor="middle">7</text><rect x="129.5666666666667" y="26.4" width="3.2" height="3.2" fill="#0093ee" /><text x="131.16666666666669" y="28.533333333333335" fill="white" class="note" text-anchor="middle">1</text><circle r="1.6" cx="155.92857142857142" cy="28" fill="#0093ee" /><text x="155.92857142857142" y="28.533333333333335" fill="white" class="note" text-anchor="middle">2</text><circle r="1.6" cx="176.88095238095238" cy="28" fill="#0093ee" /><text x="176.88095238095238" y="28.533333333333335" fill="white" class="note" text-anchor="middle">3</text><circle r="1.6" cx="185.92857142857144" cy="28" fill="#0093ee" /><text x="185.92857142857144" y="28.533333333333335" fill="white" class="note" text-anchor="middle">4</text><circle r="1.6" cx="201.16666666666666" cy="28" fill="#0093ee" /><text x="201.16666666666666" y="28.533333333333335" fill="white" class="note" text-anchor="middle">5</text></svg>